<?xml version="1.0" encoding="utf-8"?>
<!-- Generator: Adobe Illustrator 18.1.0, SVG Export Plug-In . SVG Version: 6.00 Build 0)  -->
<!DOCTYPE svg PUBLIC "-//W3C//DTD SVG 1.1//EN" "http://www.w3.org/Graphics/SVG/1.1/DTD/svg11.dtd">
<svg version="1.1" id="Layer_1" xmlns="http://www.w3.org/2000/svg" xmlns:xlink="http://www.w3.org/1999/xlink" x="0px" y="0px"
	 width="90px" height="44px" viewBox="-774.6 975.1 90 44" enable-background="new -774.6 975.1 90 44" xml:space="preserve">
<g opacity="0.14">
	<path fill="none" stroke="#FFFFFF" stroke-width="0.5" stroke-miterlimit="10" d="M-684.5,975.6c-3.7,0-7.2,0.4-11.2,1.2
		c-3.7,0.7-7.5,1.8-11.2,2.9c-3.5,1.1-7.2,2.1-11.2,2.9c-3.7,0.8-7.2,1.2-11.2,1.2s-7.2-0.4-11.2-1.2s-7.5-2.1-11.4-2.9
		c-3.7-0.9-7.2-2.3-11.2-3.2c-3.7-0.9-7.2-1.1-11.2-1.1 M-684.5,984.5c-3.7,0-7.2,0.4-11.2,1.2s-7.2,1.9-11.2,2.9
		c-3.7,1-7.2,2.1-11.2,2.9c-3.7,0.8-7.2,1.2-11.2,1.2s-7.2-0.4-11.2-1.2s-7.2-1.9-11.2-2.9c-3.7-1.1-7.5-2.3-11.4-3.1
		c-3.7-0.8-7.2-1.1-11.2-1.1 M-684.5,993.3c-3.7,0-7.2,0.4-11.2,1.2s-7.2,1.9-11.2,2.9c-3.7,1-7.2,2.1-11.2,2.9
		c-3.7,0.8-7.2,1.2-11.2,1.2s-7.2-0.4-11.2-1.2c-4-0.8-7.2-1.9-11.2-2.9c-3.7-1.1-7.2-2.1-11.2-2.9c-3.7-0.8-7.5-1.2-11.4-1.2
		 M-684.5,1002.3c-3.7,0-7.2,0.4-11.2,1.2s-7.2,1.9-11.2,2.9c-3.7,1-7.2,2.1-11.2,2.9c-3.7,0.8-7.2,1.2-11.2,1.2s-7.2-0.4-11.2-1.2
		c-4-0.8-7.2-1.9-11.2-2.9c-3.7-1-7.2-2.1-11.2-2.9c-3.7-0.8-7.5-1.2-11.4-1.2 M-684.5,1011.1c-3.7,0-7.2,0.4-11.2,1.2
		c-4,0.8-7.2,1.9-11.2,2.9c-3.7,1-7.2,2.1-11.2,2.9c-3.7,0.8-7.2,1.2-11.2,1.2s-7.2-0.4-11.2-1.2c-3.7-0.8-7.2-1.9-11.2-2.9
		c-3.7-1-7.5-2.2-11.4-2.9c-3.7-0.8-7.2-1.2-11.2-1.2"/>
</g>
</svg>
